<mxfile host="app.diagrams.net" modified="2023-05-26T08:42:10.269Z" agent="Mozilla/5.0 (Windows NT 10.0; Win64; x64) AppleWebKit/537.36 (KHTML, like Gecko) Chrome/113.0.0.0 Safari/537.36 Edg/113.0.1774.50" etag="FjyzDUhsvncagBvJnj0i" version="21.3.3" type="github">
  <diagram name="Page-1" id="74e2e168-ea6b-b213-b513-2b3c1d86103e">
    <mxGraphModel dx="1434" dy="764" grid="0" gridSize="10" guides="1" tooltips="1" connect="1" arrows="1" fold="1" page="1" pageScale="1" pageWidth="1100" pageHeight="850" background="none" math="0" shadow="0">
      <root>
        <mxCell id="0" />
        <mxCell id="1" parent="0" />
        <mxCell id="yoFmGIUXh1IHbkmMJquT-9" value="视频合成流程" style="swimlane;childLayout=stackLayout;resizeParent=1;resizeParentMax=0;startSize=20;html=1;" vertex="1" parent="1">
          <mxGeometry x="60" y="110" width="800" height="710" as="geometry" />
        </mxCell>
        <mxCell id="yoFmGIUXh1IHbkmMJquT-10" value="web 服务&lt;span style=&quot;white-space: pre;&quot;&gt;	&lt;/span&gt;" style="swimlane;startSize=20;html=1;" vertex="1" parent="yoFmGIUXh1IHbkmMJquT-9">
          <mxGeometry y="20" width="200" height="690" as="geometry" />
        </mxCell>
        <mxCell id="yoFmGIUXh1IHbkmMJquT-26" value="&lt;span style=&quot;color: rgb(0, 0, 0); font-family: Helvetica; font-size: 12px; font-style: normal; font-variant-ligatures: normal; font-variant-caps: normal; font-weight: 400; letter-spacing: normal; orphans: 2; text-indent: 0px; text-transform: none; widows: 2; word-spacing: 0px; -webkit-text-stroke-width: 0px; background-color: rgb(251, 251, 251); text-decoration-thickness: initial; text-decoration-style: initial; text-decoration-color: initial; float: none; display: inline !important;&quot;&gt;compose/submit&lt;br&gt;提交视频合成任务&lt;br&gt;&lt;/span&gt;" style="rounded=1;whiteSpace=wrap;html=1;align=center;" vertex="1" parent="yoFmGIUXh1IHbkmMJquT-10">
          <mxGeometry x="30" y="40" width="140" height="50" as="geometry" />
        </mxCell>
        <mxCell id="yoFmGIUXh1IHbkmMJquT-28" value="" style="edgeStyle=orthogonalEdgeStyle;rounded=0;orthogonalLoop=1;jettySize=auto;html=1;" edge="1" parent="yoFmGIUXh1IHbkmMJquT-10" source="yoFmGIUXh1IHbkmMJquT-26">
          <mxGeometry relative="1" as="geometry">
            <mxPoint x="100" y="120" as="targetPoint" />
          </mxGeometry>
        </mxCell>
        <mxCell id="yoFmGIUXh1IHbkmMJquT-29" value="&lt;span style=&quot;color: rgb(0, 0, 0); font-family: Helvetica; font-size: 12px; font-style: normal; font-variant-ligatures: normal; font-variant-caps: normal; font-weight: 400; letter-spacing: normal; orphans: 2; text-indent: 0px; text-transform: none; widows: 2; word-spacing: 0px; -webkit-text-stroke-width: 0px; background-color: rgb(251, 251, 251); text-decoration-thickness: initial; text-decoration-style: initial; text-decoration-color: initial; float: none; display: inline !important;&quot;&gt;TaskCompose&lt;br&gt;Service.compose&lt;br style=&quot;border-color: var(--border-color);&quot;&gt;前景、背景、任务合成&lt;br&gt;&lt;/span&gt;" style="rounded=1;whiteSpace=wrap;html=1;align=center;" vertex="1" parent="yoFmGIUXh1IHbkmMJquT-10">
          <mxGeometry x="30" y="120" width="140" height="50" as="geometry" />
        </mxCell>
        <mxCell id="yoFmGIUXh1IHbkmMJquT-34" value="&lt;span style=&quot;color: rgb(0, 0, 0); font-family: Helvetica; font-size: 12px; font-style: normal; font-variant-ligatures: normal; font-variant-caps: normal; font-weight: 400; letter-spacing: normal; orphans: 2; text-indent: 0px; text-transform: none; widows: 2; word-spacing: 0px; -webkit-text-stroke-width: 0px; background-color: rgb(251, 251, 251); text-decoration-thickness: initial; text-decoration-style: initial; text-decoration-color: initial; float: none; display: inline !important;&quot;&gt;callback/micro&lt;br&gt;VideoCompose&lt;br style=&quot;border-color: var(--border-color);&quot;&gt;短视频回调接口&lt;br&gt;&lt;/span&gt;" style="rounded=1;whiteSpace=wrap;html=1;align=center;" vertex="1" parent="yoFmGIUXh1IHbkmMJquT-10">
          <mxGeometry x="30" y="210" width="140" height="50" as="geometry" />
        </mxCell>
        <mxCell id="yoFmGIUXh1IHbkmMJquT-40" value="&lt;span style=&quot;color: rgb(0, 0, 0); font-family: Helvetica; font-size: 12px; font-style: normal; font-variant-ligatures: normal; font-variant-caps: normal; font-weight: 400; letter-spacing: normal; orphans: 2; text-indent: 0px; text-transform: none; widows: 2; word-spacing: 0px; -webkit-text-stroke-width: 0px; background-color: rgb(251, 251, 251); text-decoration-thickness: initial; text-decoration-style: initial; text-decoration-color: initial; float: none; display: inline !important;&quot;&gt;callback/vtuber&lt;br style=&quot;border-color: var(--border-color);&quot;&gt;虚拟人中台回调接口&lt;br&gt;&lt;/span&gt;" style="rounded=1;whiteSpace=wrap;html=1;align=center;" vertex="1" parent="yoFmGIUXh1IHbkmMJquT-10">
          <mxGeometry x="30" y="310" width="140" height="50" as="geometry" />
        </mxCell>
        <mxCell id="yoFmGIUXh1IHbkmMJquT-53" value="" style="edgeStyle=orthogonalEdgeStyle;rounded=0;orthogonalLoop=1;jettySize=auto;html=1;" edge="1" parent="yoFmGIUXh1IHbkmMJquT-10" source="yoFmGIUXh1IHbkmMJquT-48" target="yoFmGIUXh1IHbkmMJquT-52">
          <mxGeometry relative="1" as="geometry" />
        </mxCell>
        <mxCell id="yoFmGIUXh1IHbkmMJquT-48" value="&lt;span style=&quot;color: rgb(0, 0, 0); font-family: Helvetica; font-size: 12px; font-style: normal; font-variant-ligatures: normal; font-variant-caps: normal; font-weight: 400; letter-spacing: normal; orphans: 2; text-indent: 0px; text-transform: none; widows: 2; word-spacing: 0px; -webkit-text-stroke-width: 0px; background-color: rgb(251, 251, 251); text-decoration-thickness: initial; text-decoration-style: initial; text-decoration-color: initial; float: none; display: inline !important;&quot;&gt;callback/micro&lt;br&gt;VideoConcat&lt;br&gt;短视频文件拼接回调接口&lt;br&gt;&lt;/span&gt;" style="rounded=1;whiteSpace=wrap;html=1;align=center;" vertex="1" parent="yoFmGIUXh1IHbkmMJquT-10">
          <mxGeometry x="30" y="500" width="140" height="50" as="geometry" />
        </mxCell>
        <mxCell id="yoFmGIUXh1IHbkmMJquT-52" value="&lt;span style=&quot;color: rgb(0, 0, 0); font-family: Helvetica; font-size: 12px; font-style: normal; font-variant-ligatures: normal; font-variant-caps: normal; font-weight: 400; letter-spacing: normal; orphans: 2; text-indent: 0px; text-transform: none; widows: 2; word-spacing: 0px; -webkit-text-stroke-width: 0px; background-color: rgb(251, 251, 251); text-decoration-thickness: initial; text-decoration-style: initial; text-decoration-color: initial; float: none; display: inline !important;&quot;&gt;durationDeduct&lt;br&gt;时长扣费&lt;br&gt;&lt;/span&gt;" style="rounded=1;whiteSpace=wrap;html=1;align=center;" vertex="1" parent="yoFmGIUXh1IHbkmMJquT-10">
          <mxGeometry x="30" y="600" width="140" height="50" as="geometry" />
        </mxCell>
        <mxCell id="yoFmGIUXh1IHbkmMJquT-11" value="fileserver 服务" style="swimlane;startSize=20;html=1;" vertex="1" parent="yoFmGIUXh1IHbkmMJquT-9">
          <mxGeometry x="200" y="20" width="200" height="690" as="geometry">
            <mxRectangle x="200" y="20" width="40" height="980" as="alternateBounds" />
          </mxGeometry>
        </mxCell>
        <mxCell id="yoFmGIUXh1IHbkmMJquT-36" value="&lt;span style=&quot;color: rgb(0, 0, 0); font-family: Helvetica; font-size: 12px; font-style: normal; font-variant-ligatures: normal; font-variant-caps: normal; font-weight: 400; letter-spacing: normal; orphans: 2; text-indent: 0px; text-transform: none; widows: 2; word-spacing: 0px; -webkit-text-stroke-width: 0px; background-color: rgb(251, 251, 251); text-decoration-thickness: initial; text-decoration-style: initial; text-decoration-color: initial; float: none; display: inline !important;&quot;&gt;uploadLargeFile2S3&lt;br style=&quot;border-color: var(--border-color);&quot;&gt;通过fileserver服务&lt;br style=&quot;border-color: var(--border-color);&quot;&gt;上传文件&lt;br&gt;&lt;/span&gt;" style="rounded=1;whiteSpace=wrap;html=1;align=center;" vertex="1" parent="yoFmGIUXh1IHbkmMJquT-11">
          <mxGeometry x="30" y="210" width="140" height="50" as="geometry" />
        </mxCell>
        <mxCell id="yoFmGIUXh1IHbkmMJquT-45" value="" style="edgeStyle=orthogonalEdgeStyle;rounded=0;orthogonalLoop=1;jettySize=auto;html=1;" edge="1" parent="yoFmGIUXh1IHbkmMJquT-11" source="yoFmGIUXh1IHbkmMJquT-42" target="yoFmGIUXh1IHbkmMJquT-44">
          <mxGeometry relative="1" as="geometry" />
        </mxCell>
        <mxCell id="yoFmGIUXh1IHbkmMJquT-42" value="&lt;span style=&quot;color: rgb(0, 0, 0); font-family: Helvetica; font-size: 12px; font-style: normal; font-variant-ligatures: normal; font-variant-caps: normal; font-weight: 400; letter-spacing: normal; orphans: 2; text-indent: 0px; text-transform: none; widows: 2; word-spacing: 0px; -webkit-text-stroke-width: 0px; background-color: rgb(251, 251, 251); text-decoration-thickness: initial; text-decoration-style: initial; text-decoration-color: initial; float: none; display: inline !important;&quot;&gt;uploadLargeFile2S3&lt;br style=&quot;border-color: var(--border-color);&quot;&gt;通过fileserver服务&lt;br style=&quot;border-color: var(--border-color);&quot;&gt;上传文件&lt;br&gt;&lt;/span&gt;" style="rounded=1;whiteSpace=wrap;html=1;align=center;" vertex="1" parent="yoFmGIUXh1IHbkmMJquT-11">
          <mxGeometry x="30" y="310" width="140" height="50" as="geometry" />
        </mxCell>
        <mxCell id="yoFmGIUXh1IHbkmMJquT-44" value="&lt;span style=&quot;color: rgb(0, 0, 0); font-family: Helvetica; font-size: 12px; font-style: normal; font-variant-ligatures: normal; font-variant-caps: normal; font-weight: 400; letter-spacing: normal; orphans: 2; text-indent: 0px; text-transform: none; widows: 2; word-spacing: 0px; -webkit-text-stroke-width: 0px; background-color: rgb(251, 251, 251); text-decoration-thickness: initial; text-decoration-style: initial; text-decoration-color: initial; float: none; display: inline !important;&quot;&gt;soundCompose&lt;br&gt;音频视频文件融合&lt;br&gt;&lt;/span&gt;" style="rounded=1;whiteSpace=wrap;html=1;align=center;" vertex="1" parent="yoFmGIUXh1IHbkmMJquT-11">
          <mxGeometry x="30" y="398" width="140" height="50" as="geometry" />
        </mxCell>
        <mxCell id="yoFmGIUXh1IHbkmMJquT-50" value="&lt;span style=&quot;color: rgb(0, 0, 0); font-family: Helvetica; font-size: 12px; font-style: normal; font-variant-ligatures: normal; font-variant-caps: normal; font-weight: 400; letter-spacing: normal; orphans: 2; text-indent: 0px; text-transform: none; widows: 2; word-spacing: 0px; -webkit-text-stroke-width: 0px; background-color: rgb(251, 251, 251); text-decoration-thickness: initial; text-decoration-style: initial; text-decoration-color: initial; float: none; display: inline !important;&quot;&gt;uploadLargeFile2S3&lt;br style=&quot;border-color: var(--border-color);&quot;&gt;通过fileserver服务&lt;br style=&quot;border-color: var(--border-color);&quot;&gt;上传文件&lt;br&gt;&lt;/span&gt;" style="rounded=1;whiteSpace=wrap;html=1;align=center;" vertex="1" parent="yoFmGIUXh1IHbkmMJquT-11">
          <mxGeometry x="30" y="500" width="140" height="50" as="geometry" />
        </mxCell>
        <mxCell id="yoFmGIUXh1IHbkmMJquT-14" value="虚拟人中台" style="swimlane;startSize=20;html=1;" vertex="1" parent="yoFmGIUXh1IHbkmMJquT-9">
          <mxGeometry x="400" y="20" width="200" height="690" as="geometry">
            <mxRectangle x="200" y="20" width="40" height="980" as="alternateBounds" />
          </mxGeometry>
        </mxCell>
        <mxCell id="yoFmGIUXh1IHbkmMJquT-38" value="&lt;span style=&quot;color: rgb(0, 0, 0); font-family: Helvetica; font-size: 12px; font-style: normal; font-variant-ligatures: normal; font-variant-caps: normal; font-weight: 400; letter-spacing: normal; orphans: 2; text-indent: 0px; text-transform: none; widows: 2; word-spacing: 0px; -webkit-text-stroke-width: 0px; background-color: rgb(251, 251, 251); text-decoration-thickness: initial; text-decoration-style: initial; text-decoration-color: initial; float: none; display: inline !important;&quot;&gt;push-broadcast&lt;br style=&quot;border-color: var(--border-color);&quot;&gt;通过虚拟人中台sdk&lt;br style=&quot;border-color: var(--border-color);&quot;&gt;提交虚拟人生成任务&lt;br&gt;&lt;/span&gt;" style="rounded=1;whiteSpace=wrap;html=1;align=center;" vertex="1" parent="yoFmGIUXh1IHbkmMJquT-14">
          <mxGeometry x="30" y="210" width="140" height="50" as="geometry" />
        </mxCell>
        <mxCell id="yoFmGIUXh1IHbkmMJquT-15" value="micro-video 服务" style="swimlane;startSize=20;html=1;" vertex="1" parent="yoFmGIUXh1IHbkmMJquT-9">
          <mxGeometry x="600" y="20" width="200" height="690" as="geometry">
            <mxRectangle x="200" y="20" width="40" height="980" as="alternateBounds" />
          </mxGeometry>
        </mxCell>
        <mxCell id="yoFmGIUXh1IHbkmMJquT-30" value="&lt;span style=&quot;color: rgb(0, 0, 0); font-family: Helvetica; font-size: 12px; font-style: normal; font-variant-ligatures: normal; font-variant-caps: normal; font-weight: 400; letter-spacing: normal; orphans: 2; text-indent: 0px; text-transform: none; widows: 2; word-spacing: 0px; -webkit-text-stroke-width: 0px; background-color: rgb(251, 251, 251); text-decoration-thickness: initial; text-decoration-style: initial; text-decoration-color: initial; float: none; display: inline !important;&quot;&gt;virtualLive/task&lt;br style=&quot;border-color: var(--border-color);&quot;&gt;通过micro-video服务&lt;br style=&quot;border-color: var(--border-color);&quot;&gt;前景、背景合成&lt;br&gt;&lt;/span&gt;" style="rounded=1;whiteSpace=wrap;html=1;align=center;" vertex="1" parent="yoFmGIUXh1IHbkmMJquT-15">
          <mxGeometry x="30" y="120" width="140" height="50" as="geometry" />
        </mxCell>
        <mxCell id="yoFmGIUXh1IHbkmMJquT-46" value="&lt;span style=&quot;color: rgb(0, 0, 0); font-family: Helvetica; font-size: 12px; font-style: normal; font-variant-ligatures: normal; font-variant-caps: normal; font-weight: 400; letter-spacing: normal; orphans: 2; text-indent: 0px; text-transform: none; widows: 2; word-spacing: 0px; -webkit-text-stroke-width: 0px; background-color: rgb(251, 251, 251); text-decoration-thickness: initial; text-decoration-style: initial; text-decoration-color: initial; float: none; display: inline !important;&quot;&gt;video/concat&lt;br&gt;场景视频凭借接口&lt;br&gt;&lt;/span&gt;" style="rounded=1;whiteSpace=wrap;html=1;align=center;" vertex="1" parent="yoFmGIUXh1IHbkmMJquT-15">
          <mxGeometry x="30" y="398" width="140" height="50" as="geometry" />
        </mxCell>
        <mxCell id="yoFmGIUXh1IHbkmMJquT-31" value="" style="edgeStyle=orthogonalEdgeStyle;rounded=0;orthogonalLoop=1;jettySize=auto;html=1;" edge="1" parent="yoFmGIUXh1IHbkmMJquT-9" source="yoFmGIUXh1IHbkmMJquT-29" target="yoFmGIUXh1IHbkmMJquT-30">
          <mxGeometry relative="1" as="geometry" />
        </mxCell>
        <mxCell id="yoFmGIUXh1IHbkmMJquT-35" value="" style="edgeStyle=orthogonalEdgeStyle;orthogonalLoop=1;jettySize=auto;html=1;rounded=1;" edge="1" parent="yoFmGIUXh1IHbkmMJquT-9" source="yoFmGIUXh1IHbkmMJquT-30" target="yoFmGIUXh1IHbkmMJquT-34">
          <mxGeometry relative="1" as="geometry">
            <Array as="points">
              <mxPoint x="700" y="200" />
              <mxPoint x="100" y="200" />
            </Array>
          </mxGeometry>
        </mxCell>
        <mxCell id="yoFmGIUXh1IHbkmMJquT-37" value="" style="edgeStyle=orthogonalEdgeStyle;rounded=0;orthogonalLoop=1;jettySize=auto;html=1;" edge="1" parent="yoFmGIUXh1IHbkmMJquT-9" source="yoFmGIUXh1IHbkmMJquT-34" target="yoFmGIUXh1IHbkmMJquT-36">
          <mxGeometry relative="1" as="geometry" />
        </mxCell>
        <mxCell id="yoFmGIUXh1IHbkmMJquT-39" value="" style="edgeStyle=orthogonalEdgeStyle;rounded=0;orthogonalLoop=1;jettySize=auto;html=1;" edge="1" parent="yoFmGIUXh1IHbkmMJquT-9" source="yoFmGIUXh1IHbkmMJquT-36" target="yoFmGIUXh1IHbkmMJquT-38">
          <mxGeometry relative="1" as="geometry" />
        </mxCell>
        <mxCell id="yoFmGIUXh1IHbkmMJquT-41" value="" style="edgeStyle=orthogonalEdgeStyle;orthogonalLoop=1;jettySize=auto;html=1;rounded=1;" edge="1" parent="yoFmGIUXh1IHbkmMJquT-9" source="yoFmGIUXh1IHbkmMJquT-38" target="yoFmGIUXh1IHbkmMJquT-40">
          <mxGeometry relative="1" as="geometry">
            <Array as="points">
              <mxPoint x="500" y="300" />
              <mxPoint x="100" y="300" />
            </Array>
          </mxGeometry>
        </mxCell>
        <mxCell id="yoFmGIUXh1IHbkmMJquT-43" value="" style="edgeStyle=orthogonalEdgeStyle;rounded=0;orthogonalLoop=1;jettySize=auto;html=1;" edge="1" parent="yoFmGIUXh1IHbkmMJquT-9" source="yoFmGIUXh1IHbkmMJquT-40" target="yoFmGIUXh1IHbkmMJquT-42">
          <mxGeometry relative="1" as="geometry" />
        </mxCell>
        <mxCell id="yoFmGIUXh1IHbkmMJquT-47" value="" style="edgeStyle=orthogonalEdgeStyle;rounded=0;orthogonalLoop=1;jettySize=auto;html=1;" edge="1" parent="yoFmGIUXh1IHbkmMJquT-9" source="yoFmGIUXh1IHbkmMJquT-44" target="yoFmGIUXh1IHbkmMJquT-46">
          <mxGeometry relative="1" as="geometry" />
        </mxCell>
        <mxCell id="yoFmGIUXh1IHbkmMJquT-49" value="" style="edgeStyle=orthogonalEdgeStyle;rounded=1;orthogonalLoop=1;jettySize=auto;html=1;" edge="1" parent="yoFmGIUXh1IHbkmMJquT-9" source="yoFmGIUXh1IHbkmMJquT-46" target="yoFmGIUXh1IHbkmMJquT-48">
          <mxGeometry relative="1" as="geometry">
            <Array as="points">
              <mxPoint x="700" y="490" />
              <mxPoint x="100" y="490" />
            </Array>
          </mxGeometry>
        </mxCell>
        <mxCell id="yoFmGIUXh1IHbkmMJquT-51" value="" style="edgeStyle=orthogonalEdgeStyle;rounded=0;orthogonalLoop=1;jettySize=auto;html=1;" edge="1" parent="yoFmGIUXh1IHbkmMJquT-9" source="yoFmGIUXh1IHbkmMJquT-48" target="yoFmGIUXh1IHbkmMJquT-50">
          <mxGeometry relative="1" as="geometry" />
        </mxCell>
      </root>
    </mxGraphModel>
  </diagram>
</mxfile>
